<?xml version="1.0" standalone="no"?>
<!DOCTYPE svg PUBLIC "-//W3C//DTD SVG 20010904//EN"
 "http://www.w3.org/TR/2001/REC-SVG-20010904/DTD/svg10.dtd">
<svg version="1.0" xmlns="http://www.w3.org/2000/svg"
 width="1891.000000pt" height="1064.000000pt" viewBox="0 0 1891.000000 1064.000000"
 preserveAspectRatio="xMidYMid meet">

<g transform="translate(0.000000,1064.000000) scale(0.100000,-0.100000)"
fill="#000000" stroke="none">
<path d="M4767 8949 c-542 -63 -1029 -392 -1292 -874 -114 -208 -179 -441
-201 -712 l-7 -83 487 0 486 0 0 -440 0 -440 -485 0 -485 0 0 -205 0 -205
-295 0 -295 0 0 -430 0 -430 295 0 295 0 0 -205 0 -205 -295 0 -295 0 0 -435
0 -435 293 0 294 0 11 -125 c22 -237 79 -433 183 -635 84 -162 176 -287 309
-420 140 -140 263 -229 435 -315 219 -109 395 -157 649 -176 96 -7 1554 -9
4626 -7 l4485 4 111 21 c371 73 671 236 930 505 268 279 435 656 460 1038 l7
100 379 0 378 0 0 438 0 437 -377 0 -378 0 -3 208 -2 207 380 0 380 0 0 435 0
435 -380 0 -380 0 0 200 0 200 -402 2 -403 3 -3 438 -2 437 406 0 407 0 -6
103 c-21 322 -126 612 -324 890 -78 110 -257 287 -373 370 -164 116 -432 237
-615 277 -183 41 -51 40 -4790 38 -2491 0 -4561 -4 -4598 -9z m2963 -1924 l0
-355 -907 -2 -908 -3 0 -290 0 -290 828 -3 827 -2 0 -340 0 -340 -830 0 -831
0 3 -317 3 -318 930 -5 930 -5 3 -377 2 -378 -1375 0 -1375 0 0 1690 0 1690
1350 0 1350 0 0 -355z m3138 -22 l-3 -378 -502 -3 -503 -2 0 -1310 0 -1310
-445 0 -445 0 0 1310 0 1310 -505 0 -505 0 0 380 0 380 1455 0 1455 0 -2 -377z
m2990 25 l-3 -353 -907 -3 -908 -2 0 -295 0 -295 830 0 830 0 0 -340 0 -340
-830 0 -830 0 0 -320 0 -320 930 0 930 0 0 -380 0 -380 -1370 0 -1370 0 0
1690 0 1690 1350 0 1351 0 -3 -352z m2349 -1650 c-1 -112 -2 -23 -2 197 0 220
1 311 2 203 2 -108 2 -288 0 -400z m-12050 567 l22 -5 1 -365 c0 -326 -1 -365
-15 -365 -14 0 -16 34 -13 325 l3 325 -477 0 c-471 0 -478 0 -478 20 0 17 7
20 40 20 22 0 40 -4 40 -10 0 -5 18 -10 40 -10 22 0 40 3 40 8 0 4 179 7 398
7 390 0 397 0 397 20 0 20 -8 20 -447 23 -329 2 -448 -1 -448 -9 0 -8 -4 -8
-14 0 -10 9 -88 11 -279 9 -146 -2 -263 -1 -260 2 13 14 1388 18 1450 5z
m12003 -15 c0 -7 -247 -10 -720 -10 -473 0 -720 3 -720 10 0 7 247 10 720 10
473 0 720 -3 720 -10z m-12982 -7 c-26 -2 -71 -2 -100 0 -29 2 -8 3 47 3 55 0
79 -1 53 -3z m-143 -43 c-4 -6 -67 -10 -156 -10 -93 0 -149 4 -149 10 0 6 59
10 156 10 101 0 153 -3 149 -10z m12485 -30 c0 -11 -31 -12 -487 -14 -237 -1
-307 2 -310 12 -4 9 80 12 396 12 261 0 401 -3 401 -10z m-803 -372 c-1 -68
-3 -15 -3 117 0 132 2 187 3 123 2 -64 2 -172 0 -240z m-11490 -291 c4 10 9
10 26 0 16 -9 145 -13 497 -17 l475 -5 -485 -3 c-288 -1 -479 -6 -471 -11 10
-7 7 -9 -11 -8 -22 2 -24 5 -17 20 6 10 6 17 0 17 -5 0 -11 -5 -13 -10 -2 -7
-98 -11 -266 -13 -144 -1 -257 0 -251 2 7 2 8 6 1 10 -6 3 104 5 244 3 240 -3
253 -2 248 15 -5 15 -4 16 6 3 9 -11 13 -12 17 -3z m993 4 c0 -13 -847 -15
-855 -1 -4 7 128 10 424 10 249 0 431 -4 431 -9z m11270 -1 c-30 -5 -215 -7
-410 -7 l-355 2 335 5 c528 9 495 9 430 0z m690 0 c0 -18 -46 -21 -370 -18
l-325 3 338 3 c222 1 336 5 332 12 -3 6 1 10 9 10 9 0 16 -4 16 -10z m-767
-27 c-7 -2 -19 -2 -25 0 -7 3 -2 5 12 5 14 0 19 -2 13 -5z m57 -3 c0 -5 -2
-10 -4 -10 -3 0 -8 5 -11 10 -3 6 -1 10 4 10 6 0 11 -4 11 -10z m717 -6 c-3
-3 -12 -4 -19 -1 -8 3 -5 6 6 6 11 1 17 -2 13 -5z m-7868 -1830 c-32 -31 -53
-45 -67 -42 l-21 3 19 43 c19 41 20 42 67 42 l48 0 -46 -46z m-2503 -73 c27
-12 46 -30 57 -54 25 -51 22 -57 -26 -57 -36 0 -46 4 -55 24 -19 43 -132 40
-132 -4 0 -26 16 -36 103 -61 61 -18 84 -30 109 -57 27 -32 30 -40 26 -84 -9
-94 -98 -142 -214 -118 -57 12 -108 56 -120 106 -8 30 -8 30 39 38 31 6 38 4
44 -11 14 -41 45 -63 88 -63 49 0 78 25 73 62 -2 19 -14 26 -63 41 -135 41
-168 68 -168 137 0 51 18 79 66 101 53 24 120 24 173 0z m440 -13 c30 -20 72
-83 62 -93 -11 -11 -88 -17 -88 -7 0 24 -44 52 -83 52 -30 0 -45 -7 -69 -30
-29 -30 -30 -32 -27 -116 4 -79 6 -87 32 -110 50 -43 118 -28 143 31 13 33 15
34 46 23 49 -16 51 -22 29 -66 -50 -98 -188 -118 -278 -39 -48 42 -63 82 -63
169 0 111 38 174 125 206 45 17 131 7 171 -20z m386 22 c50 -14 97 -55 119
-105 25 -54 25 -156 0 -211 -53 -117 -222 -147 -322 -57 -46 41 -60 82 -61
167 -1 157 115 247 264 206z m2138 -12 c42 -21 93 -88 79 -102 -2 -3 -24 -8
-47 -12 -34 -5 -42 -4 -42 9 0 47 -100 63 -147 23 -25 -21 -28 -32 -31 -98 -6
-109 24 -158 96 -158 36 0 78 31 86 64 6 24 7 24 44 12 45 -16 50 -32 20 -76
-34 -50 -80 -73 -147 -73 -119 0 -191 80 -191 213 0 99 38 165 115 201 54 25
111 24 165 -3z m1019 -6 c26 -19 71 -78 71 -93 0 -4 -18 -10 -40 -14 -36 -6
-42 -4 -66 24 -21 26 -33 31 -67 31 -63 -1 -88 -27 -101 -105 -16 -95 30 -175
100 -175 38 0 84 36 84 66 0 14 7 16 37 11 54 -9 59 -19 32 -67 -32 -57 -78
-83 -148 -84 -120 -2 -196 82 -195 215 1 107 49 183 132 210 41 13 132 3 161
-19z m1345 3 c28 -19 56 -63 56 -90 0 -11 -11 -15 -44 -15 -35 0 -45 4 -49 20
-3 11 -18 24 -33 30 -53 20 -120 -12 -98 -48 11 -16 17 -19 118 -47 81 -22
116 -60 116 -124 0 -70 -27 -107 -94 -126 -116 -34 -218 12 -240 108 -6 23 -3
27 16 27 13 0 33 3 46 6 15 5 22 2 22 -8 0 -9 9 -27 21 -42 27 -34 98 -37 129
-6 40 40 16 69 -75 91 -66 16 -99 33 -124 65 -45 58 -12 151 62 174 45 14 140
5 171 -15z m-5644 -20 l0 -35 -110 0 -110 0 0 -45 0 -45 105 0 105 0 0 -35 0
-35 -105 0 -105 0 0 -60 0 -60 115 0 115 0 0 -35 0 -35 -160 0 -160 0 0 210 0
210 155 0 155 0 0 -35z m1438 -142 l2 -173 106 0 105 0 -3 -32 -3 -33 -147 -3
-148 -3 0 211 0 211 43 -3 42 -3 3 -172z m555 -15 c42 -106 79 -201 83 -211 6
-16 1 -18 -41 -15 -46 3 -48 4 -65 48 l-18 45 -82 0 -82 0 -18 -45 c-17 -43
-19 -45 -64 -48 l-46 -3 19 48 c10 26 47 121 81 211 l63 162 47 0 46 0 77
-192z m577 157 l0 -35 -60 0 -60 0 0 -175 0 -175 -45 0 -45 0 0 175 0 175 -60
0 -60 0 0 35 0 35 165 0 165 0 0 -35z m370 0 l0 -35 -115 0 -115 0 0 -45 0
-45 105 0 105 0 0 -35 0 -34 -102 -3 -103 -3 -3 -57 -3 -58 116 0 115 0 0 -35
0 -35 -160 0 -160 0 0 210 0 210 160 0 160 0 0 -35z m664 -102 l81 -132 3 134
3 135 39 0 40 0 0 -210 0 -210 -44 0 -43 0 -82 133 -81 132 0 -133 0 -133 -40
3 -41 3 -2 208 -2 208 44 -3 45 -3 80 -132z m336 -74 l0 -210 -42 3 -43 3 -3
208 -2 207 45 0 45 0 0 -211z m795 10 c44 -111 82 -205 83 -210 2 -5 -17 -9
-43 -9 -46 0 -46 0 -67 50 l-21 51 -81 -3 -80 -3 -17 -45 c-16 -44 -18 -45
-63 -48 -25 -2 -46 -1 -46 2 0 2 33 89 73 193 41 103 77 196 80 206 5 13 18
17 54 17 l48 0 80 -201z m585 166 l0 -35 -115 0 -115 0 0 -45 0 -45 105 0 105
0 0 -35 0 -34 -102 -3 -103 -3 -3 -57 -3 -58 116 0 115 0 0 -35 0 -35 -160 0
-160 0 0 210 0 210 160 0 160 0 0 -35z m770 0 l0 -35 -65 0 -65 0 0 -175 0
-175 -40 0 -40 0 0 175 0 175 -65 0 -65 0 0 35 0 35 170 0 170 0 0 -35z m223
23 c2 -7 39 -97 81 -200 42 -104 76 -192 76 -198 0 -5 -19 -10 -43 -10 -42 0
-43 1 -64 50 l-21 50 -80 0 -80 0 -18 -50 c-18 -49 -18 -50 -61 -50 -24 0 -43
3 -43 8 0 4 35 98 77 209 l78 203 46 0 c28 0 49 -5 52 -12z m467 -6 c24 -13
44 -36 63 -72 63 -124 15 -290 -92 -320 -20 -5 -80 -10 -133 -10 l-98 0 0 210
0 210 113 0 c89 0 119 -4 147 -18z m250 -137 c0 -142 2 -157 20 -175 13 -13
33 -20 58 -20 73 0 82 22 82 204 l0 146 46 0 47 0 -5 -162 c-6 -182 -13 -207
-67 -240 -45 -28 -149 -30 -198 -5 -62 33 -68 53 -71 239 l-4 168 46 0 46 0 0
-155z m625 -46 c44 -111 82 -205 84 -211 2 -5 -17 -8 -45 -6 -47 3 -49 4 -65
48 l-17 45 -83 0 -83 0 -17 -45 c-16 -44 -18 -45 -64 -48 -36 -2 -46 0 -42 10
14 36 121 310 139 356 l19 52 47 0 47 0 80 -201z m217 29 l3 -173 103 -3 102
-3 0 -34 0 -35 -145 0 -145 0 0 210 0 210 40 0 40 0 2 -172z"/>
<path d="M6517 3179 c-36 -21 -53 -81 -49 -167 3 -51 58 -102 109 -102 73 0
113 52 113 145 0 61 -19 108 -49 125 -25 13 -101 13 -124 -1z"/>
<path d="M7342 3087 c-12 -34 -22 -65 -22 -69 0 -5 23 -8 51 -8 37 0 50 4 47
13 -3 6 -13 36 -22 64 -10 29 -21 55 -25 57 -4 3 -17 -23 -29 -57z"/>
<path d="M10077 3083 l-25 -68 50 -3 c28 -2 52 -2 54 0 4 4 -39 124 -48 133
-3 3 -17 -25 -31 -62z"/>
<path d="M11750 3125 c-16 -39 -40 -106 -40 -111 0 -2 23 -4 50 -4 58 0 58 1
26 85 l-24 60 -12 -30z"/>
<path d="M12110 3178 c-1 -7 -1 -69 -2 -138 l-1 -125 63 2 c88 2 103 19 108
117 6 117 -24 156 -124 156 -28 0 -44 -4 -44 -12z"/>
<path d="M13001 3089 c-11 -35 -21 -67 -21 -71 0 -4 23 -8 50 -8 28 0 50 2 50
5 0 10 -43 121 -50 128 -4 5 -17 -20 -29 -54z"/>
</g>
</svg>
